<svg xmlns="http://www.w3.org/2000/svg" viewBox="0 0 200 200"><path d="M100 52C84 40 50 38 26 46v106c24-8 58-6 74 6z" fill="#fff" stroke="#2f5d8a" stroke-width="6" stroke-linejoin="round"/><path d="M100 52c16-12 50-14 74-6v106c-24-8-58-6-74 6z" fill="#fff" stroke="#2f5d8a" stroke-width="6" stroke-linejoin="round"/><g stroke="#9bb3c9" stroke-width="4" stroke-linecap="round"><path d="M42 70c16-3 32-2 44 4M42 90c16-3 32-2 44 4M42 110c16-3 32-2 44 4M114 74c12-6 28-7 44-4M114 94c12-6 28-7 44-4M114 114c12-6 28-7 44-4"/></g></svg>
